<?xml version="1.0" encoding="utf-8"?>
<!-- Generator: Adobe Illustrator 22.0.1, SVG Export Plug-In . SVG Version: 6.00 Build 0)  -->
<svg version="1.1" xmlns="http://www.w3.org/2000/svg" xmlns:xlink="http://www.w3.org/1999/xlink" x="0px" y="0px"
	 viewBox="0 0 195 161" style="enable-background:new 0 0 195 161;" xml:space="preserve">
<style type="text/css">
	.st0{opacity:0.2;}
	.st1{fill:#96B4F6;}
	.st2{fill:url(#SVGID_1_);}
	.st3{fill:url(#SVGID_2_);}
	.st4{fill:url(#SVGID_3_);}
	.st5{fill:url(#SVGID_4_);}
</style>
<g id="_x31_">
</g>
<g id="_x32_">
	<g class="st0">
		<path class="st1" d="M36.8,155.6c-0.9,0-1.8-0.4-2.5-1.1C19.1,138.3,10.8,117.1,10.8,95C10.8,46.8,50,7.6,98.2,7.6
			c48.2,0,87.3,39.2,87.3,87.3c0,21.9-8.1,42.8-22.9,59c-1.3,1.4-3.5,1.5-4.9,0.2c-1.4-1.3-1.5-3.5-0.2-4.9
			c13.6-14.9,21.1-34.1,21.1-54.3c0-44.3-36.1-80.4-80.4-80.4c-44.3,0-80.4,36.1-80.4,80.4c0,20.4,7.7,39.9,21.5,54.8
			c1.3,1.4,1.2,3.6-0.2,4.9C38.4,155.3,37.6,155.6,36.8,155.6z"/>
	</g>
	<g>
		<linearGradient id="SVGID_1_" gradientUnits="userSpaceOnUse" x1="12.5501" y1="81.5992" x2="174.4213" y2="81.5992">
			<stop  offset="0" style="stop-color:#71E6F6"/>
			<stop  offset="7.079774e-02" style="stop-color:#89EAF8"/>
			<stop  offset="0.1963" style="stop-color:#ADF1FA"/>
			<stop  offset="0.3286" style="stop-color:#CBF6FC"/>
			<stop  offset="0.4678" style="stop-color:#E2FAFD"/>
			<stop  offset="0.617" style="stop-color:#F2FDFE"/>
			<stop  offset="0.783" style="stop-color:#FCFEFF"/>
			<stop  offset="1" style="stop-color:#FFFFFF"/>
		</linearGradient>
		<path class="st2" d="M119.1,13.6c0.2-0.9-0.3-1.7-1.2-1.9c-6.4-1.5-13-2.3-19.8-2.3C51,9.4,12.6,47.8,12.6,95
			c0,21.7,8.1,42.4,22.9,58.3c0.3,0.4,0.8,0.5,1.3,0.5c0.4,0,0.8-0.2,1.2-0.5c0.7-0.7,0.7-1.7,0.1-2.4c-14.2-15.2-22-35.1-22-56
			c0-45.3,36.9-82.2,82.2-82.2c6.5,0,12.9,0.8,19,2.2c0.9,0.2,1.8-0.4,1.9-1.3C119.1,13.6,119.1,13.6,119.1,13.6z"/>
	</g>
</g>
<g id="_x33_">
</g>
</svg>
