<?xml version="1.0" encoding="utf-8"?>
<!-- Generator: Adobe Illustrator 22.0.1, SVG Export Plug-In . SVG Version: 6.00 Build 0)  -->
<svg version="1.1" xmlns="http://www.w3.org/2000/svg" xmlns:xlink="http://www.w3.org/1999/xlink" x="0px" y="0px"
	 viewBox="0 0 195 161" style="enable-background:new 0 0 195 161;" xml:space="preserve">
<style type="text/css">
	.st0{opacity:0.2;}
	.st1{fill:#96B4F6;}
	.st2{fill:url(#SVGID_1_);}
	.st3{fill:url(#SVGID_2_);}
	.st4{fill:url(#SVGID_3_);}
	.st5{fill:url(#SVGID_4_);}
</style>
<g id="_x31_">
</g>
<g id="_x32_">
</g>
<g id="_x33_">
	<g class="st0">
		<path class="st1" d="M39.1,154.6c-0.9,0-1.8-0.4-2.5-1.1C21.5,137.3,13.2,116.1,13.2,94c0-48.2,39.2-87.3,87.3-87.3
			c48.2,0,87.3,39.2,87.3,87.3c0,21.9-8.1,42.8-22.9,59c-1.3,1.4-3.5,1.5-4.9,0.2c-1.4-1.3-1.5-3.5-0.2-4.9
			c13.6-14.9,21.1-34.1,21.1-54.3c0-44.3-36.1-80.4-80.4-80.4c-44.3,0-80.4,36.1-80.4,80.4c0,20.4,7.7,39.9,21.5,54.8
			c1.3,1.4,1.2,3.6-0.2,4.9C40.8,154.3,39.9,154.6,39.1,154.6z"/>
	</g>
	<g>
		<linearGradient id="SVGID_1_" gradientUnits="userSpaceOnUse" x1="14.8834" y1="80.5992" x2="177.527" y2="80.5992">
			<stop  offset="0" style="stop-color:#71E6F6"/>
			<stop  offset="1" style="stop-color:#FFFFFF"/>
		</linearGradient>
		<path class="st2" d="M39.1,152.8c-0.5,0-0.9-0.2-1.3-0.5C23,136.4,14.9,115.7,14.9,94c0-47.2,38.4-85.6,85.6-85.6
			c32.9,0,62.3,18.3,76.8,47.8c0.4,0.9,0.1,1.9-0.8,2.3c-0.9,0.4-1.9,0.1-2.3-0.8c-13.9-28.3-42.2-45.9-73.7-45.9
			c-45.3,0-82.2,36.9-82.2,82.2c0,20.8,7.8,40.7,22,56c0.6,0.7,0.6,1.8-0.1,2.4C39.9,152.7,39.5,152.8,39.1,152.8z"/>
	</g>
	<g>
		<linearGradient id="SVGID_2_" gradientUnits="userSpaceOnUse" x1="14.8834" y1="80.5992" x2="177.527" y2="80.5992">
			<stop  offset="0" style="stop-color:#71E6F6"/>
			<stop  offset="1" style="stop-color:#FFFFFF"/>
		</linearGradient>
		<path class="st3" d="M39.1,152.8c-0.5,0-0.9-0.2-1.3-0.5C23,136.4,14.9,115.7,14.9,94c0-47.2,38.4-85.6,85.6-85.6
			c32.9,0,62.3,18.3,76.8,47.8c0.4,0.9,0.1,1.9-0.8,2.3c-0.9,0.4-1.9,0.1-2.3-0.8c-13.9-28.3-42.2-45.9-73.7-45.9
			c-45.3,0-82.2,36.9-82.2,82.2c0,20.8,7.8,40.7,22,56c0.6,0.7,0.6,1.8-0.1,2.4C39.9,152.7,39.5,152.8,39.1,152.8z"/>
	</g>
</g>
</svg>
