<?xml version="1.0" encoding="utf-8"?>
<!-- Generator: Adobe Illustrator 22.0.1, SVG Export Plug-In . SVG Version: 6.00 Build 0)  -->
<svg version="1.1" xmlns="http://www.w3.org/2000/svg" xmlns:xlink="http://www.w3.org/1999/xlink" x="0px" y="0px"
	 viewBox="0 0 195 161" style="enable-background:new 0 0 195 161;" xml:space="preserve">
<style type="text/css">
	.st0{opacity:0.2;}
	.st1{fill:#96B4F6;}
	.st2{fill:url(#SVGID_1_);}
	.st3{fill:url(#SVGID_2_);}
	.st4{fill:url(#SVGID_3_);}
	.st5{fill:url(#SVGID_4_);}
</style>
<g id="_x31_">
	<g class="st0">
		<path class="st1" d="M38.8,154.6c-0.9,0-1.8-0.4-2.5-1.1C21.1,137.3,12.8,116.1,12.8,94c0-48.2,39.2-87.3,87.3-87.3
			c48.2,0,87.3,39.2,87.3,87.3c0,21.9-8.1,42.8-22.9,59c-1.3,1.4-3.5,1.5-4.9,0.2c-1.4-1.3-1.5-3.5-0.2-4.9
			c13.6-14.9,21.1-34.1,21.1-54.3c0-44.3-36.1-80.4-80.4-80.4c-44.3,0-80.4,36.1-80.4,80.4c0,20.4,7.7,39.9,21.5,54.8
			c1.3,1.4,1.2,3.6-0.2,4.9C40.4,154.3,39.6,154.6,38.8,154.6z"/>
	</g>
	<g>
		<linearGradient id="SVGID_1_" gradientUnits="userSpaceOnUse" x1="10.885" y1="125.361" x2="53.3084" y2="82.9376">
			<stop  offset="0" style="stop-color:#71E6F6"/>
			<stop  offset="3.649420e-02" style="stop-color:#89EAF8"/>
			<stop  offset="9.469354e-02" style="stop-color:#A8F0FA"/>
			<stop  offset="0.1607" style="stop-color:#C4F5FB"/>
			<stop  offset="0.2352" style="stop-color:#DAF8FD"/>
			<stop  offset="0.3222" style="stop-color:#EBFBFE"/>
			<stop  offset="0.4298" style="stop-color:#F6FDFE"/>
			<stop  offset="0.5808" style="stop-color:#FDFFFF"/>
			<stop  offset="1" style="stop-color:#FFFFFF"/>
		</linearGradient>
		<path class="st2" d="M18.3,94c0-12.9,3-25.2,8.4-36.1c0.4-0.8,0.1-1.7-0.7-2.1c0,0-0.1,0-0.1-0.1c-0.8-0.4-1.8-0.2-2.2,0.6
			C18,67.7,14.9,80.5,14.9,94c0,21.7,8.1,42.4,22.9,58.3c0.3,0.4,0.8,0.5,1.3,0.5c0.4,0,0.8-0.2,1.2-0.5c0.7-0.7,0.7-1.7,0.1-2.4
			C26.2,134.7,18.3,114.8,18.3,94z"/>
	</g>
</g>
<g id="_x32_">
</g>
<g id="_x33_">
</g>
</svg>
